<svg id="pickup" enable-background="new 0 0 300 300" height="512" viewBox="0 0 300 300" width="512" xmlns="http://www.w3.org/2000/svg"><g><circle cx="138.771" cy="132.539" fill="#eaeaea" r="92"/><g fill="#4c241d"><path d="m65.172 57.681c-7.719 0-14-6.281-14-14s6.281-14 14-14 14 6.281 14 14-6.281 14-14 14zm0-20c-3.309 0-6 2.691-6 6s2.691 6 6 6 6-2.691 6-6-2.692-6-6-6z"/><circle cx="119.099" cy="86.931" r="4.276"/><path d="m50 122.319c-2.209 0-4-1.791-4-4v-8c0-2.209 1.791-4 4-4s4 1.791 4 4v8c0 2.209-1.791 4-4 4z"/><path d="m50 146.319c-2.209 0-4-1.791-4-4v-8c0-2.209 1.791-4 4-4s4 1.791 4 4v8c0 2.209-1.791 4-4 4z"/><path d="m42 130.319h-8c-2.209 0-4-1.791-4-4s1.791-4 4-4h8c2.209 0 4 1.791 4 4s-1.791 4-4 4z"/><path d="m66 130.319h-8c-2.209 0-4-1.791-4-4s1.791-4 4-4h8c2.209 0 4 1.791 4 4s-1.791 4-4 4z"/></g><g><path d="m206 58.319h60v208h-60z" fill="#edebdc"/><path d="m266 270.319h-60c-2.209 0-4-1.791-4-4v-208c0-2.209 1.791-4 4-4h60c2.209 0 4 1.791 4 4v208c0 2.209-1.791 4-4 4zm-56-8h52v-200h-52z" fill="#4c241d"/></g><g><path d="m174 42.319h92v24h-92z" fill="#bf7e68"/><path d="m266 70.319h-92c-2.209 0-4-1.791-4-4v-24c0-2.209 1.791-4 4-4h92c2.209 0 4 1.791 4 4v24c0 2.209-1.791 4-4 4zm-88-8h84v-16h-84z" fill="#4c241d"/></g><g><path d="m226 90.319h20v48h-20z" fill="#9dc1e4"/><path d="m246 142.319h-20c-2.209 0-4-1.791-4-4v-48c0-2.209 1.791-4 4-4h20c2.209 0 4 1.791 4 4v48c0 2.209-1.791 4-4 4zm-16-8h12v-40h-12z" fill="#4c241d"/></g><g><path d="m206 174.319h24v92h-24z" fill="#9dc1e4"/><path d="m230 270.319h-24c-2.209 0-4-1.791-4-4v-92c0-2.209 1.791-4 4-4h24c2.209 0 4 1.791 4 4v92c0 2.209-1.791 4-4 4zm-20-8h16v-84h-16z" fill="#4c241d"/></g><g><path d="m206 158.319h60v16h-60z" fill="#e7d1c4"/><path d="m266 178.319h-60c-2.209 0-4-1.791-4-4v-16c0-2.209 1.791-4 4-4h60c2.209 0 4 1.791 4 4v16c0 2.209-1.791 4-4 4zm-56-8h52v-8h-52z" fill="#4c241d"/></g><g><path d="m153.227 254.319h-69.953c-4.984 0-9.024-4.04-9.024-9.024v-17.953c0-4.984 4.04-9.024 9.024-9.024h69.953c4.984 0 9.024 4.04 9.024 9.024v17.953c0 4.984-4.04 9.024-9.024 9.024z" fill="#ffce56"/><path d="m153.227 258.319h-69.954c-7.182 0-13.023-5.842-13.023-13.023v-17.953c0-7.182 5.842-13.023 13.023-13.023h69.953c7.182 0 13.023 5.842 13.023 13.023v17.953c.001 7.182-5.841 13.023-13.022 13.023zm-69.954-36c-2.77 0-5.023 2.254-5.023 5.023v17.953c0 2.77 2.254 5.023 5.023 5.023h69.953c2.77 0 5.023-2.254 5.023-5.023v-17.953c0-2.77-2.254-5.023-5.023-5.023z" fill="#4c241d"/></g><g><path d="m142.087 194.319h-47.672c-4.543 0-8.434 3.254-9.238 7.726l-2.926 16.274h72l-2.926-16.274c-.804-4.472-4.695-7.726-9.238-7.726z" fill="#c1dbdc"/><path d="m154.25 222.319h-72c-1.186 0-2.309-.525-3.068-1.434s-1.078-2.107-.869-3.273l2.926-16.275c1.15-6.385 6.691-11.018 13.176-11.018h47.672c6.488 0 12.029 4.633 13.176 11.018l2.926 16.275c.209 1.166-.109 2.365-.869 3.273s-1.884 1.434-3.07 1.434zm-67.217-8h62.434l-2.08-11.568c-.461-2.568-2.689-4.432-5.301-4.432h-47.672c-2.609 0-4.84 1.865-5.301 4.434z" fill="#4c241d"/></g><circle cx="144.251" cy="237.167" fill="#fff" r="6"/><circle cx="92.251" cy="237.167" fill="#fff" r="6"/><g><path d="m92 266.319c-3.314 0-6-2.686-6-6v-6h12v6c0 3.314-2.686 6-6 6z" fill="#6b4f5b"/><path d="m92 270.319c-5.514 0-10-4.486-10-10v-6c0-2.209 1.791-4 4-4h12c2.209 0 4 1.791 4 4v6c0 5.514-4.486 10-10 10zm-2-12v2c0 1.104.896 2 2 2s2-.896 2-2v-2z" fill="#4c241d"/></g><g><path d="m144 266.319c-3.314 0-6-2.686-6-6v-6h12v6c0 3.314-2.686 6-6 6z" fill="#6b4f5b"/><path d="m144 270.319c-5.514 0-10-4.486-10-10v-6c0-2.209 1.791-4 4-4h12c2.209 0 4 1.791 4 4v6c0 5.514-4.486 10-10 10zm-2-12v2c0 1.104.896 2 2 2s2-.896 2-2v-2z" fill="#4c241d"/></g><g><path d="m162.958 160.676c0 17.115-30.989 57.551-30.989 57.551s-30.989-40.436-30.989-57.551 13.874-30.989 30.989-30.989 30.989 13.874 30.989 30.989z" fill="#f53e28"/><path d="m131.969 222.228c-1.244 0-2.418-.58-3.176-1.566-3.256-4.25-31.812-42.033-31.812-59.984 0-19.293 15.695-34.99 34.988-34.99s34.988 15.697 34.988 34.99c0 17.951-28.557 55.734-31.812 59.984-.758.985-1.932 1.566-3.176 1.566zm0-88.541c-14.881 0-26.988 12.107-26.988 26.99 0 11.518 17.285 37.576 26.988 50.863 9.703-13.291 26.988-39.354 26.988-50.863 0-14.883-12.107-26.99-26.988-26.99z" fill="#4c241d"/></g><g><circle cx="131.969" cy="160.676" fill="#fff" r="15.686"/><path d="m131.969 180.362c-10.855 0-19.686-8.83-19.686-19.686s8.83-19.688 19.686-19.688 19.686 8.832 19.686 19.688-8.831 19.686-19.686 19.686zm0-31.373c-6.443 0-11.686 5.242-11.686 11.688 0 6.443 5.242 11.686 11.686 11.686s11.686-5.242 11.686-11.686c-.001-6.446-5.243-11.688-11.686-11.688z" fill="#4c241d"/></g></g></svg>